<svg width="932" height="390" viewBox="0 0 932 390" fill="none" xmlns="http://www.w3.org/2000/svg">
<path d="M153.961 117.92C146.921 117.92 140.121 117.12 133.561 115.52C127.001 113.92 121.601 111.84 117.361 109.28L126.481 88.64C130.481 90.96 134.921 92.84 139.801 94.28C144.761 95.64 149.561 96.32 154.201 96.32C156.921 96.32 159.041 96.16 160.561 95.84C162.161 95.44 163.321 94.92 164.041 94.28C164.761 93.56 165.121 92.72 165.121 91.76C165.121 90.24 164.281 89.04 162.601 88.16C160.921 87.28 158.681 86.56 155.881 86C153.161 85.36 150.161 84.72 146.881 84.08C143.601 83.36 140.281 82.44 136.921 81.32C133.641 80.2 130.601 78.72 127.801 76.88C125.081 75.04 122.881 72.64 121.201 69.68C119.521 66.64 118.681 62.88 118.681 58.4C118.681 53.2 120.121 48.48 123.001 44.24C125.961 39.92 130.321 36.48 136.081 33.92C141.921 31.36 149.161 30.08 157.801 30.08C163.481 30.08 169.081 30.68 174.601 31.88C180.121 33.08 185.081 34.92 189.481 37.4L180.961 57.92C176.801 55.84 172.761 54.28 168.841 53.24C165.001 52.2 161.241 51.68 157.561 51.68C154.841 51.68 152.681 51.92 151.081 52.4C149.481 52.88 148.321 53.52 147.601 54.32C146.961 55.12 146.641 56 146.641 56.96C146.641 58.4 147.481 59.56 149.161 60.44C150.841 61.24 153.041 61.92 155.761 62.48C158.561 63.04 161.601 63.64 164.881 64.28C168.241 64.92 171.561 65.8 174.841 66.92C178.121 68.04 181.121 69.52 183.841 71.36C186.641 73.2 188.881 75.6 190.561 78.56C192.241 81.52 193.081 85.2 193.081 89.6C193.081 94.72 191.601 99.44 188.641 103.76C185.761 108 181.441 111.44 175.681 114.08C169.921 116.64 162.681 117.92 153.961 117.92ZM201.508 116V32H229.828V116H201.508ZM243.461 116V32H266.741L300.341 86.84H288.101L320.741 32H344.021L344.261 116H318.461L318.221 70.88H322.301L299.981 108.44H287.501L264.221 70.88H269.261V116H243.461ZM348.833 116L385.553 32H413.393L450.113 116H420.833L393.713 45.44H404.753L377.633 116H348.833ZM370.673 101.36L377.873 80.96H416.513L423.713 101.36H370.673ZM454.633 116V32H477.913L520.633 83.12H509.833V32H537.433V116H514.153L471.433 64.88H482.233V116H454.633ZM551.078 116V32H592.478C601.838 32 610.078 33.72 617.198 37.16C624.318 40.52 629.878 45.32 633.878 51.56C637.878 57.8 639.878 65.28 639.878 74C639.878 82.64 637.878 90.12 633.878 96.44C629.878 102.68 624.318 107.52 617.198 110.96C610.078 114.32 601.838 116 592.478 116H551.078ZM579.398 93.92H591.278C595.278 93.92 598.758 93.16 601.718 91.64C604.758 90.12 607.118 87.88 608.798 84.92C610.478 81.88 611.318 78.24 611.318 74C611.318 69.68 610.478 66.04 608.798 63.08C607.118 60.12 604.758 57.88 601.718 56.36C598.758 54.84 595.278 54.08 591.278 54.08H579.398V93.92ZM694.259 117.92C687.459 117.92 681.139 116.84 675.299 114.68C669.539 112.52 664.539 109.48 660.299 105.56C656.059 101.56 652.739 96.88 650.339 91.52C648.019 86.16 646.859 80.32 646.859 74C646.859 67.6 648.019 61.76 650.339 56.48C652.739 51.12 656.059 46.48 660.299 42.56C664.539 38.56 669.539 35.48 675.299 33.32C681.139 31.16 687.459 30.08 694.259 30.08C701.139 30.08 707.459 31.16 713.219 33.32C718.979 35.48 723.979 38.56 728.219 42.56C732.459 46.48 735.739 51.12 738.059 56.48C740.459 61.76 741.659 67.6 741.659 74C741.659 80.32 740.459 86.16 738.059 91.52C735.739 96.88 732.459 101.56 728.219 105.56C723.979 109.48 718.979 112.52 713.219 114.68C707.459 116.84 701.139 117.92 694.259 117.92ZM694.259 95C696.899 95 699.339 94.52 701.579 93.56C703.899 92.6 705.899 91.24 707.579 89.48C709.339 87.64 710.699 85.44 711.659 82.88C712.619 80.24 713.099 77.28 713.099 74C713.099 70.72 712.619 67.8 711.659 65.24C710.699 62.6 709.339 60.4 707.579 58.64C705.899 56.8 703.899 55.4 701.579 54.44C699.339 53.48 696.899 53 694.259 53C691.619 53 689.139 53.48 686.819 54.44C684.579 55.4 682.579 56.8 680.819 58.64C679.139 60.4 677.819 62.6 676.859 65.24C675.899 67.8 675.419 70.72 675.419 74C675.419 77.28 675.899 80.24 676.859 82.88C677.819 85.44 679.139 87.64 680.819 89.48C682.579 91.24 684.579 92.6 686.819 93.56C689.139 94.52 691.619 95 694.259 95ZM792.138 117.92C779.258 117.92 769.218 114.44 762.018 107.48C754.818 100.52 751.218 90.76 751.218 78.2V32H779.538V77.36C779.538 83.76 780.698 88.32 783.018 91.04C785.338 93.68 788.458 95 792.378 95C796.378 95 799.498 93.68 801.738 91.04C804.058 88.32 805.218 83.76 805.218 77.36V32H833.058V78.2C833.058 90.76 829.458 100.52 822.258 107.48C815.058 114.44 805.018 117.92 792.138 117.92ZM307.652 263.92C300.612 263.92 293.812 263.12 287.252 261.52C280.692 259.92 275.292 257.84 271.052 255.28L280.172 234.64C284.172 236.96 288.612 238.84 293.492 240.28C298.452 241.64 303.252 242.32 307.892 242.32C310.612 242.32 312.732 242.16 314.252 241.84C315.852 241.44 317.012 240.92 317.732 240.28C318.452 239.56 318.812 238.72 318.812 237.76C318.812 236.24 317.972 235.04 316.292 234.16C314.612 233.28 312.372 232.56 309.572 232C306.852 231.36 303.852 230.72 300.572 230.08C297.292 229.36 293.972 228.44 290.612 227.32C287.332 226.2 284.292 224.72 281.492 222.88C278.772 221.04 276.572 218.64 274.892 215.68C273.212 212.64 272.372 208.88 272.372 204.4C272.372 199.2 273.812 194.48 276.692 190.24C279.652 185.92 284.012 182.48 289.772 179.92C295.612 177.36 302.852 176.08 311.492 176.08C317.172 176.08 322.772 176.68 328.292 177.88C333.812 179.08 338.772 180.92 343.172 183.4L334.652 203.92C330.492 201.84 326.452 200.28 322.532 199.24C318.692 198.2 314.932 197.68 311.252 197.68C308.532 197.68 306.372 197.92 304.772 198.4C303.172 198.88 302.012 199.52 301.292 200.32C300.652 201.12 300.332 202 300.332 202.96C300.332 204.4 301.172 205.56 302.852 206.44C304.532 207.24 306.732 207.92 309.452 208.48C312.252 209.04 315.292 209.64 318.572 210.28C321.932 210.92 325.252 211.8 328.532 212.92C331.812 214.04 334.812 215.52 337.532 217.36C340.332 219.2 342.572 221.6 344.252 224.56C345.932 227.52 346.772 231.2 346.772 235.6C346.772 240.72 345.292 245.44 342.332 249.76C339.452 254 335.132 257.44 329.372 260.08C323.612 262.64 316.372 263.92 307.652 263.92ZM390.599 263.2C382.599 263.2 375.599 261.72 369.599 258.76C363.679 255.8 359.079 251.76 355.799 246.64C352.519 241.44 350.879 235.6 350.879 229.12C350.879 222.48 352.479 216.6 355.679 211.48C358.959 206.36 363.399 202.36 368.999 199.48C374.679 196.6 381.039 195.16 388.079 195.16C394.559 195.16 400.519 196.44 405.959 199C411.479 201.56 415.879 205.36 419.159 210.4C422.519 215.44 424.199 221.68 424.199 229.12C424.199 230.08 424.159 231.16 424.079 232.36C423.999 233.48 423.919 234.52 423.839 235.48H373.319V222.4H409.439L399.239 225.88C399.239 223.32 398.759 221.16 397.799 219.4C396.919 217.56 395.679 216.16 394.079 215.2C392.479 214.16 390.559 213.64 388.319 213.64C386.079 213.64 384.119 214.16 382.439 215.2C380.839 216.16 379.599 217.56 378.719 219.4C377.839 221.16 377.399 223.32 377.399 225.88V229.96C377.399 232.76 377.959 235.16 379.079 237.16C380.199 239.16 381.799 240.68 383.879 241.72C385.959 242.68 388.479 243.16 391.439 243.16C394.479 243.16 396.959 242.76 398.879 241.96C400.879 241.16 402.959 239.96 405.119 238.36L419.279 252.64C416.079 256.08 412.119 258.72 407.399 260.56C402.759 262.32 397.159 263.2 390.599 263.2ZM374.999 189.16L390.839 169.96H416.639L392.999 189.16H374.999ZM430.986 286.48C427.786 286.48 424.746 286.2 421.866 285.64C418.906 285.08 416.386 284.28 414.306 283.24L420.786 264.4C422.706 265.44 424.746 265.96 426.906 265.96C428.506 265.96 429.826 265.36 430.866 264.16C431.986 262.96 432.546 261.04 432.546 258.4V196.36H459.666V258.64C459.666 267.12 457.146 273.88 452.106 278.92C447.066 283.96 440.026 286.48 430.986 286.48ZM446.106 191.08C441.146 191.08 437.186 189.76 434.226 187.12C431.266 184.48 429.786 181.2 429.786 177.28C429.786 173.36 431.266 170.08 434.226 167.44C437.186 164.8 441.146 163.48 446.106 163.48C451.066 163.48 455.026 164.72 457.986 167.2C460.946 169.68 462.426 172.88 462.426 176.8C462.426 180.96 460.946 184.4 457.986 187.12C455.026 189.76 451.066 191.08 446.106 191.08ZM506.344 263.2C498.904 263.2 492.304 261.76 486.544 258.88C480.864 255.92 476.384 251.88 473.104 246.76C469.824 241.64 468.184 235.76 468.184 229.12C468.184 222.48 469.824 216.6 473.104 211.48C476.384 206.36 480.864 202.36 486.544 199.48C492.304 196.6 498.904 195.16 506.344 195.16C513.784 195.16 520.384 196.6 526.144 199.48C531.904 202.36 536.384 206.36 539.584 211.48C542.864 216.6 544.504 222.48 544.504 229.12C544.504 235.76 542.864 241.64 539.584 246.76C536.384 251.88 531.904 255.92 526.144 258.88C520.384 261.76 513.784 263.2 506.344 263.2ZM506.344 242.08C508.344 242.08 510.144 241.6 511.744 240.64C513.344 239.68 514.624 238.24 515.584 236.32C516.544 234.32 517.024 231.92 517.024 229.12C517.024 226.24 516.544 223.88 515.584 222.04C514.624 220.12 513.344 218.68 511.744 217.72C510.144 216.76 508.344 216.28 506.344 216.28C504.344 216.28 502.544 216.76 500.944 217.72C499.344 218.68 498.064 220.12 497.104 222.04C496.144 223.88 495.664 226.24 495.664 229.12C495.664 231.92 496.144 234.32 497.104 236.32C498.064 238.24 499.344 239.68 500.944 240.64C502.544 241.6 504.344 242.08 506.344 242.08ZM580.352 263.2C575.152 263.2 570.432 262.16 566.192 260.08C562.032 257.92 558.752 254.6 556.352 250.12C553.952 245.56 552.752 239.72 552.752 232.6V196.36H579.872V227.92C579.872 232.56 580.632 235.8 582.152 237.64C583.672 239.48 585.752 240.4 588.392 240.4C589.992 240.4 591.472 240 592.832 239.2C594.272 238.32 595.432 236.92 596.312 235C597.192 233 597.632 230.4 597.632 227.2V196.36H624.752V262H598.952V243.04L604.112 248.2C601.792 253.32 598.472 257.12 594.152 259.6C589.912 262 585.312 263.2 580.352 263.2ZM636.781 262V196.36H662.581V216.16L658.381 210.52C660.381 205.4 663.581 201.56 667.981 199C672.381 196.44 677.661 195.16 683.821 195.16V219.16C682.621 219 681.541 218.88 680.581 218.8C679.701 218.72 678.781 218.68 677.821 218.68C673.741 218.68 670.381 219.76 667.741 221.92C665.181 224 663.901 227.64 663.901 232.84V262H636.781Z" fill="#228C22"/>
<path d="M2.44016 380V352H11.8802V372.68H24.5202V380H2.44016ZM24.2555 366.24L27.6155 355L28.9355 360.04C27.3888 360.04 26.1221 359.6 25.1355 358.72C24.1488 357.813 23.6555 356.587 23.6555 355.04C23.6555 353.467 24.1488 352.227 25.1355 351.32C26.1488 350.387 27.4155 349.92 28.9355 349.92C30.4555 349.92 31.7088 350.387 32.6955 351.32C33.7088 352.227 34.2155 353.467 34.2155 355.04C34.2155 355.467 34.1755 355.893 34.0955 356.32C34.0421 356.747 33.9088 357.267 33.6955 357.88C33.4821 358.467 33.1355 359.267 32.6555 360.28L29.8555 366.24H24.2555ZM37.0039 380V358.12H46.0439V380H37.0039ZM41.5239 356.36C39.8706 356.36 38.5506 355.92 37.5639 355.04C36.5772 354.16 36.0839 353.067 36.0839 351.76C36.0839 350.453 36.5772 349.36 37.5639 348.48C38.5506 347.6 39.8706 347.16 41.5239 347.16C43.1772 347.16 44.4972 347.573 45.4839 348.4C46.4706 349.227 46.9639 350.293 46.9639 351.6C46.9639 352.987 46.4706 354.133 45.4839 355.04C44.4972 355.92 43.1772 356.36 41.5239 356.36ZM50.0508 380V358.12H58.6508V364.52L56.9308 362.68C57.7841 361.027 58.9308 359.787 60.3708 358.96C61.8374 358.133 63.4641 357.72 65.2508 357.72C66.9308 357.72 68.4508 358.067 69.8108 358.76C71.1708 359.427 72.2374 360.48 73.0108 361.92C73.8108 363.36 74.2108 365.227 74.2108 367.52V380H65.1708V369.08C65.1708 367.72 64.9308 366.76 64.4508 366.2C63.9708 365.613 63.3174 365.32 62.4908 365.32C61.8774 365.32 61.3041 365.467 60.7708 365.76C60.2641 366.027 59.8508 366.48 59.5308 367.12C59.2374 367.76 59.0908 368.627 59.0908 369.72V380H50.0508ZM79.1367 380V359.2C79.1367 356.373 79.9767 354.12 81.6567 352.44C83.3634 350.76 85.7767 349.92 88.8967 349.92C89.8567 349.92 90.8167 350.013 91.7767 350.2C92.7634 350.36 93.5901 350.627 94.2567 351L92.0967 357.28C91.8034 357.147 91.4834 357.027 91.1367 356.92C90.7901 356.813 90.4301 356.76 90.0567 356.76C89.4167 356.76 88.8967 356.96 88.4967 357.36C88.0967 357.76 87.8967 358.4 87.8967 359.28V360.32L88.1767 364.04V380H79.1367ZM76.1367 365.92V359.32H92.6567V365.92H76.1367ZM95.168 380V358.12H103.768V364.72L102.368 362.84C103.035 361.133 104.101 359.853 105.568 359C107.035 358.147 108.795 357.72 110.848 357.72V365.72C110.448 365.667 110.088 365.627 109.768 365.6C109.475 365.573 109.168 365.56 108.848 365.56C107.488 365.56 106.368 365.92 105.488 366.64C104.635 367.333 104.208 368.547 104.208 370.28V380H95.168ZM125.439 380V376.12L124.799 375.08V367.72C124.799 366.653 124.466 365.84 123.799 365.28C123.159 364.72 122.106 364.44 120.639 364.44C119.653 364.44 118.653 364.6 117.639 364.92C116.626 365.213 115.759 365.627 115.039 366.16L112.159 360.2C113.439 359.4 114.973 358.787 116.759 358.36C118.546 357.933 120.293 357.72 121.999 357.72C125.759 357.72 128.666 358.56 130.719 360.24C132.799 361.92 133.839 364.587 133.839 368.24V380H125.439ZM119.239 380.4C117.453 380.4 115.959 380.093 114.759 379.48C113.559 378.867 112.653 378.053 112.039 377.04C111.426 376 111.119 374.853 111.119 373.6C111.119 372.187 111.479 370.987 112.199 370C112.919 369.013 114.013 368.267 115.479 367.76C116.973 367.253 118.853 367 121.119 367H125.679V371.36H122.559C121.599 371.36 120.893 371.52 120.439 371.84C120.013 372.133 119.799 372.587 119.799 373.2C119.799 373.707 119.986 374.133 120.359 374.48C120.759 374.8 121.293 374.96 121.959 374.96C122.573 374.96 123.133 374.8 123.639 374.48C124.173 374.133 124.559 373.6 124.799 372.88L125.959 375.56C125.613 377.187 124.879 378.4 123.759 379.2C122.639 380 121.133 380.4 119.239 380.4ZM146.306 380.4C144.439 380.4 142.599 380.2 140.786 379.8C138.973 379.4 137.506 378.88 136.386 378.24L138.866 372.28C139.906 372.893 141.106 373.373 142.466 373.72C143.853 374.067 145.199 374.24 146.506 374.24C147.599 374.24 148.333 374.147 148.706 373.96C149.106 373.773 149.306 373.52 149.306 373.2C149.306 372.88 149.079 372.653 148.626 372.52C148.173 372.36 147.573 372.24 146.826 372.16C146.079 372.08 145.253 371.987 144.346 371.88C143.466 371.747 142.573 371.56 141.666 371.32C140.759 371.08 139.933 370.72 139.186 370.24C138.439 369.76 137.839 369.12 137.386 368.32C136.933 367.493 136.706 366.453 136.706 365.2C136.706 363.813 137.119 362.56 137.946 361.44C138.799 360.32 140.053 359.427 141.706 358.76C143.386 358.067 145.453 357.72 147.906 357.72C149.506 357.72 151.106 357.867 152.706 358.16C154.306 358.453 155.679 358.907 156.826 359.52L154.346 365.48C153.226 364.867 152.119 364.453 151.026 364.24C149.959 364 148.959 363.88 148.026 363.88C146.879 363.88 146.093 363.987 145.666 364.2C145.266 364.413 145.066 364.653 145.066 364.92C145.066 365.24 145.293 365.48 145.746 365.64C146.199 365.8 146.799 365.92 147.546 366C148.293 366.08 149.106 366.187 149.986 366.32C150.893 366.427 151.786 366.613 152.666 366.88C153.573 367.12 154.399 367.48 155.146 367.96C155.893 368.44 156.493 369.093 156.946 369.92C157.399 370.72 157.626 371.747 157.626 373C157.626 374.307 157.213 375.533 156.386 376.68C155.559 377.8 154.306 378.707 152.626 379.4C150.946 380.067 148.839 380.4 146.306 380.4ZM170.923 380.4C167.91 380.4 165.563 379.68 163.883 378.24C162.203 376.773 161.363 374.533 161.363 371.52V353.2H170.403V371.44C170.403 372.107 170.577 372.627 170.923 373C171.297 373.373 171.75 373.56 172.283 373.56C173.057 373.56 173.737 373.36 174.323 372.96L176.483 379.24C175.79 379.64 174.95 379.933 173.963 380.12C173.003 380.307 171.99 380.4 170.923 380.4ZM158.363 364.72V358.12H174.883V364.72H158.363ZM178.762 380V358.12H187.362V364.72L185.962 362.84C186.628 361.133 187.695 359.853 189.162 359C190.628 358.147 192.388 357.72 194.442 357.72V365.72C194.042 365.667 193.682 365.627 193.362 365.6C193.068 365.573 192.762 365.56 192.442 365.56C191.082 365.56 189.962 365.92 189.082 366.64C188.228 367.333 187.802 368.547 187.802 370.28V380H178.762ZM206.124 380.4C204.391 380.4 202.817 380.053 201.404 379.36C200.017 378.64 198.924 377.533 198.124 376.04C197.324 374.52 196.924 372.573 196.924 370.2V358.12H205.964V368.64C205.964 370.187 206.217 371.267 206.724 371.88C207.231 372.493 207.924 372.8 208.804 372.8C209.337 372.8 209.831 372.667 210.284 372.4C210.764 372.107 211.151 371.64 211.444 371C211.737 370.333 211.884 369.467 211.884 368.4V358.12H220.924V380H212.324V373.68L214.044 375.4C213.271 377.107 212.164 378.373 210.724 379.2C209.311 380 207.777 380.4 206.124 380.4ZM236.694 380.4C234.187 380.4 231.96 379.92 230.014 378.96C228.067 378 226.534 376.667 225.414 374.96C224.32 373.227 223.774 371.253 223.774 369.04C223.774 366.827 224.32 364.867 225.414 363.16C226.534 361.453 228.067 360.12 230.014 359.16C231.96 358.2 234.187 357.72 236.694 357.72C239.36 357.72 241.64 358.293 243.534 359.44C245.427 360.587 246.734 362.173 247.454 364.2L240.454 367.64C240 366.627 239.44 365.893 238.774 365.44C238.134 364.987 237.427 364.76 236.654 364.76C235.987 364.76 235.36 364.92 234.774 365.24C234.214 365.56 233.76 366.04 233.414 366.68C233.094 367.293 232.934 368.08 232.934 369.04C232.934 370 233.094 370.8 233.414 371.44C233.76 372.08 234.214 372.56 234.774 372.88C235.36 373.2 235.987 373.36 236.654 373.36C237.427 373.36 238.134 373.133 238.774 372.68C239.44 372.227 240 371.493 240.454 370.48L247.454 373.92C246.734 375.947 245.427 377.533 243.534 378.68C241.64 379.827 239.36 380.4 236.694 380.4ZM260.494 380.4C257.48 380.4 255.134 379.68 253.454 378.24C251.774 376.773 250.934 374.533 250.934 371.52V353.2H259.974V371.44C259.974 372.107 260.147 372.627 260.494 373C260.867 373.373 261.32 373.56 261.854 373.56C262.627 373.56 263.307 373.36 263.894 372.96L266.054 379.24C265.36 379.64 264.52 379.933 263.534 380.12C262.574 380.307 261.56 380.4 260.494 380.4ZM247.934 364.72V358.12H264.454V364.72H247.934ZM277.452 380.4C275.719 380.4 274.145 380.053 272.732 379.36C271.345 378.64 270.252 377.533 269.452 376.04C268.652 374.52 268.252 372.573 268.252 370.2V358.12H277.292V368.64C277.292 370.187 277.545 371.267 278.052 371.88C278.559 372.493 279.252 372.8 280.132 372.8C280.665 372.8 281.159 372.667 281.612 372.4C282.092 372.107 282.479 371.64 282.772 371C283.065 370.333 283.212 369.467 283.212 368.4V358.12H292.252V380H283.652V373.68L285.372 375.4C284.599 377.107 283.492 378.373 282.052 379.2C280.639 380 279.105 380.4 277.452 380.4ZM296.262 380V358.12H304.862V364.72L303.462 362.84C304.128 361.133 305.195 359.853 306.662 359C308.128 358.147 309.888 357.72 311.942 357.72V365.72C311.542 365.667 311.182 365.627 310.862 365.6C310.568 365.573 310.262 365.56 309.942 365.56C308.582 365.56 307.462 365.92 306.582 366.64C305.728 367.333 305.302 368.547 305.302 370.28V380H296.262ZM326.389 380.4C323.722 380.4 321.389 379.907 319.389 378.92C317.415 377.933 315.882 376.587 314.789 374.88C313.695 373.147 313.149 371.2 313.149 369.04C313.149 366.827 313.682 364.867 314.749 363.16C315.842 361.453 317.322 360.12 319.189 359.16C321.082 358.2 323.202 357.72 325.549 357.72C327.709 357.72 329.695 358.147 331.509 359C333.349 359.853 334.815 361.12 335.909 362.8C337.029 364.48 337.589 366.56 337.589 369.04C337.589 369.36 337.575 369.72 337.549 370.12C337.522 370.493 337.495 370.84 337.469 371.16H320.629V366.8H332.669L329.269 367.96C329.269 367.107 329.109 366.387 328.789 365.8C328.495 365.187 328.082 364.72 327.549 364.4C327.015 364.053 326.375 363.88 325.629 363.88C324.882 363.88 324.229 364.053 323.669 364.4C323.135 364.72 322.722 365.187 322.429 365.8C322.135 366.387 321.989 367.107 321.989 367.96V369.32C321.989 370.253 322.175 371.053 322.549 371.72C322.922 372.387 323.455 372.893 324.149 373.24C324.842 373.56 325.682 373.72 326.669 373.72C327.682 373.72 328.509 373.587 329.149 373.32C329.815 373.053 330.509 372.653 331.229 372.12L335.949 376.88C334.882 378.027 333.562 378.907 331.989 379.52C330.442 380.107 328.575 380.4 326.389 380.4ZM352.714 380V352H360.474L374.714 369.04H371.114V352H380.314V380H372.554L358.314 362.96H361.914V380H352.714ZM393.702 380.4C391.969 380.4 390.395 380.053 388.982 379.36C387.595 378.64 386.502 377.533 385.702 376.04C384.902 374.52 384.502 372.573 384.502 370.2V358.12H393.542V368.64C393.542 370.187 393.795 371.267 394.302 371.88C394.809 372.493 395.502 372.8 396.382 372.8C396.915 372.8 397.409 372.667 397.862 372.4C398.342 372.107 398.729 371.64 399.022 371C399.315 370.333 399.462 369.467 399.462 368.4V358.12H408.502V380H399.902V373.68L401.622 375.4C400.849 377.107 399.742 378.373 398.302 379.2C396.889 380 395.355 380.4 393.702 380.4ZM412.512 380V358.12H421.112V364.4L419.352 362.64C420.178 360.987 421.285 359.76 422.672 358.96C424.058 358.133 425.605 357.72 427.312 357.72C429.232 357.72 430.925 358.227 432.392 359.24C433.885 360.227 434.885 361.8 435.392 363.96L432.632 363.52C433.432 361.707 434.592 360.293 436.112 359.28C437.658 358.24 439.445 357.72 441.472 357.72C443.125 357.72 444.605 358.067 445.912 358.76C447.245 359.427 448.285 360.48 449.032 361.92C449.805 363.36 450.192 365.227 450.192 367.52V380H441.152V369.08C441.152 367.72 440.925 366.76 440.472 366.2C440.018 365.613 439.432 365.32 438.712 365.32C438.178 365.32 437.698 365.453 437.272 365.72C436.845 365.987 436.498 366.413 436.232 367C435.992 367.56 435.872 368.333 435.872 369.32V380H426.832V369.08C426.832 367.72 426.618 366.76 426.192 366.2C425.765 365.613 425.165 365.32 424.392 365.32C423.858 365.32 423.378 365.453 422.952 365.72C422.525 365.987 422.178 366.413 421.912 367C421.672 367.56 421.552 368.333 421.552 369.32V380H412.512ZM466.584 380.4C463.917 380.4 461.584 379.907 459.584 378.92C457.611 377.933 456.077 376.587 454.984 374.88C453.891 373.147 453.344 371.2 453.344 369.04C453.344 366.827 453.877 364.867 454.944 363.16C456.037 361.453 457.517 360.12 459.384 359.16C461.277 358.2 463.397 357.72 465.744 357.72C467.904 357.72 469.891 358.147 471.704 359C473.544 359.853 475.011 361.12 476.104 362.8C477.224 364.48 477.784 366.56 477.784 369.04C477.784 369.36 477.771 369.72 477.744 370.12C477.717 370.493 477.691 370.84 477.664 371.16H460.824V366.8H472.864L469.464 367.96C469.464 367.107 469.304 366.387 468.984 365.8C468.691 365.187 468.277 364.72 467.744 364.4C467.211 364.053 466.571 363.88 465.824 363.88C465.077 363.88 464.424 364.053 463.864 364.4C463.331 364.72 462.917 365.187 462.624 365.8C462.331 366.387 462.184 367.107 462.184 367.96V369.32C462.184 370.253 462.371 371.053 462.744 371.72C463.117 372.387 463.651 372.893 464.344 373.24C465.037 373.56 465.877 373.72 466.864 373.72C467.877 373.72 468.704 373.587 469.344 373.32C470.011 373.053 470.704 372.653 471.424 372.12L476.144 376.88C475.077 378.027 473.757 378.907 472.184 379.52C470.637 380.107 468.771 380.4 466.584 380.4ZM461.384 355.72L466.664 349.32H475.264L467.384 355.72H461.384ZM480.637 380V358.12H489.237V364.72L487.837 362.84C488.503 361.133 489.57 359.853 491.037 359C492.503 358.147 494.263 357.72 496.317 357.72V365.72C495.917 365.667 495.557 365.627 495.237 365.6C494.943 365.573 494.637 365.56 494.317 365.56C492.957 365.56 491.837 365.92 490.957 366.64C490.103 367.333 489.677 368.547 489.677 370.28V380H480.637ZM498.879 380V358.12H507.919V380H498.879ZM503.399 356.36C501.746 356.36 500.426 355.92 499.439 355.04C498.452 354.16 497.959 353.067 497.959 351.76C497.959 350.453 498.452 349.36 499.439 348.48C500.426 347.6 501.746 347.16 503.399 347.16C505.052 347.16 506.372 347.573 507.359 348.4C508.346 349.227 508.839 350.293 508.839 351.6C508.839 352.987 508.346 354.133 507.359 355.04C506.372 355.92 505.052 356.36 503.399 356.36ZM521.326 380.4C519.432 380.4 517.672 379.947 516.046 379.04C514.446 378.133 513.166 376.84 512.206 375.16C511.246 373.453 510.766 371.427 510.766 369.08C510.766 366.733 511.246 364.72 512.206 363.04C513.166 361.333 514.446 360.027 516.046 359.12C517.672 358.187 519.432 357.72 521.326 357.72C523.352 357.72 524.966 358.12 526.166 358.92C527.392 359.72 528.272 360.96 528.806 362.64C529.366 364.293 529.646 366.44 529.646 369.08C529.646 371.667 529.352 373.8 528.766 375.48C528.179 377.133 527.272 378.373 526.046 379.2C524.819 380 523.246 380.4 521.326 380.4ZM523.486 373.36C524.152 373.36 524.752 373.2 525.286 372.88C525.819 372.56 526.246 372.08 526.566 371.44C526.886 370.8 527.046 370.013 527.046 369.08C527.046 368.12 526.886 367.32 526.566 366.68C526.246 366.04 525.819 365.56 525.286 365.24C524.752 364.92 524.152 364.76 523.486 364.76C522.819 364.76 522.219 364.92 521.686 365.24C521.152 365.56 520.726 366.04 520.406 366.68C520.086 367.32 519.926 368.12 519.926 369.08C519.926 370.013 520.086 370.8 520.406 371.44C520.726 372.08 521.152 372.56 521.686 372.88C522.219 373.2 522.819 373.36 523.486 373.36ZM526.886 387.76V377.08L527.286 369.08L527.326 361.08V358.12H535.926V387.76H526.886ZM549.054 380.4C547.32 380.4 545.747 380.053 544.334 379.36C542.947 378.64 541.854 377.533 541.054 376.04C540.254 374.52 539.854 372.573 539.854 370.2V358.12H548.894V368.64C548.894 370.187 549.147 371.267 549.654 371.88C550.16 372.493 550.854 372.8 551.734 372.8C552.267 372.8 552.76 372.667 553.214 372.4C553.694 372.107 554.08 371.64 554.374 371C554.667 370.333 554.814 369.467 554.814 368.4V358.12H563.854V380H555.254V373.68L556.974 375.4C556.2 377.107 555.094 378.373 553.654 379.2C552.24 380 550.707 380.4 549.054 380.4ZM579.943 380.4C577.277 380.4 574.943 379.907 572.943 378.92C570.97 377.933 569.437 376.587 568.343 374.88C567.25 373.147 566.703 371.2 566.703 369.04C566.703 366.827 567.237 364.867 568.303 363.16C569.397 361.453 570.877 360.12 572.743 359.16C574.637 358.2 576.757 357.72 579.103 357.72C581.263 357.72 583.25 358.147 585.063 359C586.903 359.853 588.37 361.12 589.463 362.8C590.583 364.48 591.143 366.56 591.143 369.04C591.143 369.36 591.13 369.72 591.103 370.12C591.077 370.493 591.05 370.84 591.023 371.16H574.183V366.8H586.223L582.823 367.96C582.823 367.107 582.663 366.387 582.343 365.8C582.05 365.187 581.637 364.72 581.103 364.4C580.57 364.053 579.93 363.88 579.183 363.88C578.437 363.88 577.783 364.053 577.223 364.4C576.69 364.72 576.277 365.187 575.983 365.8C575.69 366.387 575.543 367.107 575.543 367.96V369.32C575.543 370.253 575.73 371.053 576.103 371.72C576.477 372.387 577.01 372.893 577.703 373.24C578.397 373.56 579.237 373.72 580.223 373.72C581.237 373.72 582.063 373.587 582.703 373.32C583.37 373.053 584.063 372.653 584.783 372.12L589.503 376.88C588.437 378.027 587.117 378.907 585.543 379.52C583.997 380.107 582.13 380.4 579.943 380.4ZM615.588 380.4C613.695 380.4 611.935 379.947 610.308 379.04C608.708 378.107 607.428 376.8 606.468 375.12C605.508 373.413 605.028 371.387 605.028 369.04C605.028 366.693 605.508 364.68 606.468 363C607.428 361.293 608.708 359.987 610.308 359.08C611.935 358.173 613.695 357.72 615.588 357.72C617.508 357.72 619.082 358.133 620.308 358.96C621.535 359.76 622.442 361 623.028 362.68C623.615 364.333 623.908 366.453 623.908 369.04C623.908 371.653 623.628 373.8 623.068 375.48C622.535 377.16 621.655 378.4 620.428 379.2C619.228 380 617.615 380.4 615.588 380.4ZM617.748 373.36C618.415 373.36 619.015 373.2 619.548 372.88C620.082 372.56 620.508 372.08 620.828 371.44C621.148 370.773 621.308 369.973 621.308 369.04C621.308 368.08 621.148 367.293 620.828 366.68C620.508 366.04 620.082 365.56 619.548 365.24C619.015 364.92 618.415 364.76 617.748 364.76C617.082 364.76 616.482 364.92 615.948 365.24C615.415 365.56 614.988 366.04 614.668 366.68C614.348 367.293 614.188 368.08 614.188 369.04C614.188 369.973 614.348 370.773 614.668 371.44C614.988 372.08 615.415 372.56 615.948 372.88C616.482 373.2 617.082 373.36 617.748 373.36ZM621.588 380V377.04L621.548 369.04L621.148 361.04V350.32H630.188V380H621.588ZM646.271 380.4C643.605 380.4 641.271 379.907 639.271 378.92C637.298 377.933 635.765 376.587 634.671 374.88C633.578 373.147 633.031 371.2 633.031 369.04C633.031 366.827 633.565 364.867 634.631 363.16C635.725 361.453 637.205 360.12 639.071 359.16C640.965 358.2 643.085 357.72 645.431 357.72C647.591 357.72 649.578 358.147 651.391 359C653.231 359.853 654.698 361.12 655.791 362.8C656.911 364.48 657.471 366.56 657.471 369.04C657.471 369.36 657.458 369.72 657.431 370.12C657.405 370.493 657.378 370.84 657.351 371.16H640.511V366.8H652.551L649.151 367.96C649.151 367.107 648.991 366.387 648.671 365.8C648.378 365.187 647.965 364.72 647.431 364.4C646.898 364.053 646.258 363.88 645.511 363.88C644.765 363.88 644.111 364.053 643.551 364.4C643.018 364.72 642.605 365.187 642.311 365.8C642.018 366.387 641.871 367.107 641.871 367.96V369.32C641.871 370.253 642.058 371.053 642.431 371.72C642.805 372.387 643.338 372.893 644.031 373.24C644.725 373.56 645.565 373.72 646.551 373.72C647.565 373.72 648.391 373.587 649.031 373.32C649.698 373.053 650.391 372.653 651.111 372.12L655.831 376.88C654.765 378.027 653.445 378.907 651.871 379.52C650.325 380.107 648.458 380.4 646.271 380.4ZM672.316 380V350.32H681.356V380H672.316ZM684.763 366.24L688.123 355L689.443 360.04C687.897 360.04 686.63 359.6 685.643 358.72C684.657 357.813 684.163 356.587 684.163 355.04C684.163 353.467 684.657 352.227 685.643 351.32C686.657 350.387 687.923 349.92 689.443 349.92C690.963 349.92 692.217 350.387 693.203 351.32C694.217 352.227 694.723 353.467 694.723 355.04C694.723 355.467 694.683 355.893 694.603 356.32C694.55 356.747 694.417 357.267 694.203 357.88C693.99 358.467 693.643 359.267 693.163 360.28L690.363 366.24H684.763ZM715.952 380V352H725.392V380H715.952ZM697.792 380V352H707.232V380H697.792ZM706.592 369.68V361.92H716.592V369.68H706.592ZM741.22 380.4C738.74 380.4 736.54 379.92 734.62 378.96C732.727 377.973 731.233 376.627 730.14 374.92C729.047 373.213 728.5 371.253 728.5 369.04C728.5 366.827 729.047 364.867 730.14 363.16C731.233 361.453 732.727 360.12 734.62 359.16C736.54 358.2 738.74 357.72 741.22 357.72C743.7 357.72 745.9 358.2 747.82 359.16C749.74 360.12 751.233 361.453 752.3 363.16C753.393 364.867 753.94 366.827 753.94 369.04C753.94 371.253 753.393 373.213 752.3 374.92C751.233 376.627 749.74 377.973 747.82 378.96C745.9 379.92 743.7 380.4 741.22 380.4ZM741.22 373.36C741.887 373.36 742.487 373.2 743.02 372.88C743.553 372.56 743.98 372.08 744.3 371.44C744.62 370.773 744.78 369.973 744.78 369.04C744.78 368.08 744.62 367.293 744.3 366.68C743.98 366.04 743.553 365.56 743.02 365.24C742.487 364.92 741.887 364.76 741.22 364.76C740.553 364.76 739.953 364.92 739.42 365.24C738.887 365.56 738.46 366.04 738.14 366.68C737.82 367.293 737.66 368.08 737.66 369.04C737.66 369.973 737.82 370.773 738.14 371.44C738.46 372.08 738.887 372.56 739.42 372.88C739.953 373.2 740.553 373.36 741.22 373.36ZM765.33 380.4C763.463 380.4 761.623 380.2 759.81 379.8C757.996 379.4 756.53 378.88 755.41 378.24L757.89 372.28C758.93 372.893 760.13 373.373 761.49 373.72C762.876 374.067 764.223 374.24 765.53 374.24C766.623 374.24 767.356 374.147 767.73 373.96C768.13 373.773 768.33 373.52 768.33 373.2C768.33 372.88 768.103 372.653 767.65 372.52C767.196 372.36 766.596 372.24 765.85 372.16C765.103 372.08 764.276 371.987 763.37 371.88C762.49 371.747 761.596 371.56 760.69 371.32C759.783 371.08 758.956 370.72 758.21 370.24C757.463 369.76 756.863 369.12 756.41 368.32C755.956 367.493 755.73 366.453 755.73 365.2C755.73 363.813 756.143 362.56 756.97 361.44C757.823 360.32 759.076 359.427 760.73 358.76C762.41 358.067 764.476 357.72 766.93 357.72C768.53 357.72 770.13 357.867 771.73 358.16C773.33 358.453 774.703 358.907 775.85 359.52L773.37 365.48C772.25 364.867 771.143 364.453 770.05 364.24C768.983 364 767.983 363.88 767.05 363.88C765.903 363.88 765.116 363.987 764.69 364.2C764.29 364.413 764.09 364.653 764.09 364.92C764.09 365.24 764.316 365.48 764.77 365.64C765.223 365.8 765.823 365.92 766.57 366C767.316 366.08 768.13 366.187 769.01 366.32C769.916 366.427 770.81 366.613 771.69 366.88C772.596 367.12 773.423 367.48 774.17 367.96C774.916 368.44 775.516 369.093 775.97 369.92C776.423 370.72 776.65 371.747 776.65 373C776.65 374.307 776.236 375.533 775.41 376.68C774.583 377.8 773.33 378.707 771.65 379.4C769.97 380.067 767.863 380.4 765.33 380.4ZM793.987 380.4C792.093 380.4 790.52 380 789.267 379.2C788.04 378.373 787.133 377.133 786.547 375.48C785.96 373.8 785.667 371.667 785.667 369.08C785.667 366.44 785.933 364.293 786.467 362.64C787.027 360.96 787.92 359.72 789.147 358.92C790.373 358.12 791.987 357.72 793.987 357.72C795.907 357.72 797.667 358.187 799.267 359.12C800.867 360.027 802.147 361.333 803.107 363.04C804.067 364.72 804.547 366.733 804.547 369.08C804.547 371.427 804.067 373.453 803.107 375.16C802.147 376.84 800.867 378.133 799.267 379.04C797.667 379.947 795.907 380.4 793.987 380.4ZM779.387 387.76V358.12H787.987V361.08L788.027 369.08L788.427 377.08V387.76H779.387ZM791.827 373.36C792.493 373.36 793.093 373.2 793.627 372.88C794.16 372.56 794.587 372.08 794.907 371.44C795.227 370.8 795.387 370.013 795.387 369.08C795.387 368.12 795.227 367.32 794.907 366.68C794.587 366.04 794.16 365.56 793.627 365.24C793.093 364.92 792.493 364.76 791.827 364.76C791.16 364.76 790.56 364.92 790.027 365.24C789.493 365.56 789.067 366.04 788.747 366.68C788.427 367.32 788.267 368.12 788.267 369.08C788.267 370.013 788.427 370.8 788.747 371.44C789.067 372.08 789.493 372.56 790.027 372.88C790.56 373.2 791.16 373.36 791.827 373.36ZM807.395 380V358.12H816.435V380H807.395ZM811.915 356.36C810.261 356.36 808.941 355.92 807.955 355.04C806.968 354.16 806.475 353.067 806.475 351.76C806.475 350.453 806.968 349.36 807.955 348.48C808.941 347.6 810.261 347.16 811.915 347.16C813.568 347.16 814.888 347.573 815.875 348.4C816.861 349.227 817.355 350.293 817.355 351.6C817.355 352.987 816.861 354.133 815.875 355.04C814.888 355.92 813.568 356.36 811.915 356.36ZM831.001 380.4C827.988 380.4 825.641 379.68 823.961 378.24C822.281 376.773 821.441 374.533 821.441 371.52V353.2H830.481V371.44C830.481 372.107 830.655 372.627 831.001 373C831.375 373.373 831.828 373.56 832.361 373.56C833.135 373.56 833.815 373.36 834.401 372.96L836.561 379.24C835.868 379.64 835.028 379.933 834.041 380.12C833.081 380.307 832.068 380.4 831.001 380.4ZM818.441 364.72V358.12H834.961V364.72H818.441ZM851.494 380V376.12L850.854 375.08V367.72C850.854 366.653 850.521 365.84 849.854 365.28C849.214 364.72 848.161 364.44 846.694 364.44C845.707 364.44 844.707 364.6 843.694 364.92C842.681 365.213 841.814 365.627 841.094 366.16L838.214 360.2C839.494 359.4 841.027 358.787 842.814 358.36C844.601 357.933 846.347 357.72 848.054 357.72C851.814 357.72 854.721 358.56 856.774 360.24C858.854 361.92 859.894 364.587 859.894 368.24V380H851.494ZM845.294 380.4C843.507 380.4 842.014 380.093 840.814 379.48C839.614 378.867 838.707 378.053 838.094 377.04C837.481 376 837.174 374.853 837.174 373.6C837.174 372.187 837.534 370.987 838.254 370C838.974 369.013 840.067 368.267 841.534 367.76C843.027 367.253 844.907 367 847.174 367H851.734V371.36H848.614C847.654 371.36 846.947 371.52 846.494 371.84C846.067 372.133 845.854 372.587 845.854 373.2C845.854 373.707 846.041 374.133 846.414 374.48C846.814 374.8 847.347 374.96 848.014 374.96C848.627 374.96 849.187 374.8 849.694 374.48C850.227 374.133 850.614 373.6 850.854 372.88L852.014 375.56C851.667 377.187 850.934 378.4 849.814 379.2C848.694 380 847.187 380.4 845.294 380.4ZM863.801 380V350.32H872.841V380H863.801ZM876.848 380V358.12H885.888V380H876.848ZM881.368 356.36C879.714 356.36 878.394 355.92 877.408 355.04C876.421 354.16 875.928 353.067 875.928 351.76C875.928 350.453 876.421 349.36 877.408 348.48C878.394 347.6 879.714 347.16 881.368 347.16C883.021 347.16 884.341 347.573 885.328 348.4C886.314 349.227 886.808 350.293 886.808 351.6C886.808 352.987 886.314 354.133 885.328 355.04C884.341 355.92 883.021 356.36 881.368 356.36ZM900.455 380.4C897.441 380.4 895.095 379.68 893.415 378.24C891.735 376.773 890.895 374.533 890.895 371.52V353.2H899.935V371.44C899.935 372.107 900.108 372.627 900.455 373C900.828 373.373 901.281 373.56 901.815 373.56C902.588 373.56 903.268 373.36 903.855 372.96L906.015 379.24C905.321 379.64 904.481 379.933 903.495 380.12C902.535 380.307 901.521 380.4 900.455 380.4ZM887.895 364.72V358.12H904.415V364.72H887.895ZM919.787 380.4C917.12 380.4 914.787 379.907 912.787 378.92C910.814 377.933 909.28 376.587 908.187 374.88C907.094 373.147 906.547 371.2 906.547 369.04C906.547 366.827 907.08 364.867 908.147 363.16C909.24 361.453 910.72 360.12 912.587 359.16C914.48 358.2 916.6 357.72 918.947 357.72C921.107 357.72 923.094 358.147 924.907 359C926.747 359.853 928.214 361.12 929.307 362.8C930.427 364.48 930.987 366.56 930.987 369.04C930.987 369.36 930.974 369.72 930.947 370.12C930.92 370.493 930.894 370.84 930.867 371.16H914.027V366.8H926.067L922.667 367.96C922.667 367.107 922.507 366.387 922.187 365.8C921.894 365.187 921.48 364.72 920.947 364.4C920.414 364.053 919.774 363.88 919.027 363.88C918.28 363.88 917.627 364.053 917.067 364.4C916.534 364.72 916.12 365.187 915.827 365.8C915.534 366.387 915.387 367.107 915.387 367.96V369.32C915.387 370.253 915.574 371.053 915.947 371.72C916.32 372.387 916.854 372.893 917.547 373.24C918.24 373.56 919.08 373.72 920.067 373.72C921.08 373.72 921.907 373.587 922.547 373.32C923.214 373.053 923.907 372.653 924.627 372.12L929.347 376.88C928.28 378.027 926.96 378.907 925.387 379.52C923.84 380.107 921.974 380.4 919.787 380.4ZM914.587 355.72L919.867 349.32H928.467L920.587 355.72H914.587Z" fill="black"/>
</svg>
